<svg xmlns="http://www.w3.org/2000/svg" viewBox="0 0 800 600" width="800" height="600">
  <defs>
    <linearGradient id="bg" x1="0%" y1="0%" x2="0%" y2="100%">
      <stop offset="0%" style="stop-color:#1a3a5c;stop-opacity:1" />
      <stop offset="100%" style="stop-color:#0d1f33;stop-opacity:1" />
    </linearGradient>
    <radialGradient id="body" cx="50%" cy="40%" r="50%">
      <stop offset="0%" style="stop-color:#b05a30;stop-opacity:1" />
      <stop offset="100%" style="stop-color:#7a3a1a;stop-opacity:1" />
    </radialGradient>
  </defs>
  <rect width="800" height="600" fill="url(#bg)"/>
  <ellipse cx="250" cy="100" rx="180" ry="40" fill="#1e4a6e" opacity="0.25"/>
  <ellipse cx="550" cy="480" rx="160" ry="35" fill="#0a1520" opacity="0.3"/>
  <!-- Octopus mantle (head/body) -->
  <ellipse cx="400" cy="220" rx="80" ry="60" fill="url(#body)"/>
  <!-- Mantle texture spots -->
  <circle cx="380" cy="200" r="5" fill="#904820" opacity="0.5"/>
  <circle cx="420" cy="210" r="6" fill="#904820" opacity="0.5"/>
  <circle cx="395" cy="240" r="4" fill="#904820" opacity="0.5"/>
  <circle cx="360" cy="225" r="5" fill="#904820" opacity="0.5"/>
  <circle cx="435" cy="230" r="4" fill="#904820" opacity="0.5"/>
  <!-- Blue ocellated spots (characteristic) -->
  <circle cx="370" cy="215" r="8" fill="#2060a0" opacity="0.6"/>
  <circle cx="370" cy="215" r="4" fill="#3080c0" opacity="0.8"/>
  <circle cx="430" cy="220" r="8" fill="#2060a0" opacity="0.6"/>
  <circle cx="430" cy="220" r="4" fill="#3080c0" opacity="0.8"/>
  <!-- Eyes -->
  <ellipse cx="370" cy="270" rx="14" ry="12" fill="#1a1a1a"/>
  <ellipse cx="370" cy="268" rx="6" ry="5" fill="#4a4a30"/>
  <ellipse cx="430" cy="270" rx="14" ry="12" fill="#1a1a1a"/>
  <ellipse cx="430" cy="268" rx="6" ry="5" fill="#4a4a30"/>
  <!-- Tentacles - 8 arms curving outward -->
  <path d="M360,285 Q320,340 280,380 Q260,400 250,420 Q245,435 260,430 Q270,420 290,395" stroke="#9a4a25" stroke-width="14" fill="none" stroke-linecap="round" opacity="0.9"/>
  <path d="M375,290 Q350,350 340,400 Q335,430 330,450 Q328,465 340,455 Q348,440 350,410" stroke="#9a4a25" stroke-width="13" fill="none" stroke-linecap="round" opacity="0.9"/>
  <path d="M395,295 Q390,360 385,410 Q383,440 385,460 Q387,475 395,460 Q400,440 398,415" stroke="#9a4a25" stroke-width="13" fill="none" stroke-linecap="round" opacity="0.9"/>
  <path d="M415,295 Q420,360 430,410 Q435,440 440,455 Q445,470 448,455 Q445,435 438,410" stroke="#9a4a25" stroke-width="13" fill="none" stroke-linecap="round" opacity="0.9"/>
  <path d="M435,290 Q460,350 480,400 Q490,425 500,445 Q505,458 510,442 Q508,425 495,400" stroke="#9a4a25" stroke-width="13" fill="none" stroke-linecap="round" opacity="0.9"/>
  <path d="M445,285 Q490,340 530,380 Q545,398 555,415 Q560,428 565,412 Q558,395 535,370" stroke="#9a4a25" stroke-width="14" fill="none" stroke-linecap="round" opacity="0.9"/>
  <!-- Suction cups (small circles on tentacles) -->
  <circle cx="310" cy="370" r="3" fill="#c07040" opacity="0.5"/>
  <circle cx="325" cy="355" r="3" fill="#c07040" opacity="0.5"/>
  <circle cx="355" cy="395" r="3" fill="#c07040" opacity="0.5"/>
  <circle cx="362" cy="375" r="3" fill="#c07040" opacity="0.5"/>
  <circle cx="392" cy="400" r="3" fill="#c07040" opacity="0.5"/>
  <circle cx="430" cy="395" r="3" fill="#c07040" opacity="0.5"/>
  <circle cx="475" cy="385" r="3" fill="#c07040" opacity="0.5"/>
  <circle cx="520" cy="370" r="3" fill="#c07040" opacity="0.5"/>
  <!-- Two front arms reaching forward -->
  <path d="M380,285 Q350,300 320,310 Q295,318 280,315 Q270,312 280,305 Q290,300 310,300" stroke="#9a4a25" stroke-width="10" fill="none" stroke-linecap="round" opacity="0.85"/>
  <path d="M420,285 Q450,300 480,310 Q505,318 520,315 Q530,312 520,305 Q510,300 490,300" stroke="#9a4a25" stroke-width="10" fill="none" stroke-linecap="round" opacity="0.85"/>
  <!-- Label -->
  <text x="400" y="530" text-anchor="middle" font-family="'Hiragino Sans', 'Yu Gothic', sans-serif" font-size="42" fill="#ffffff" font-weight="bold" opacity="0.9">イイダコ</text>
  <text x="400" y="565" text-anchor="middle" font-family="'Hiragino Sans', 'Yu Gothic', sans-serif" font-size="20" fill="#88bbdd" opacity="0.7">Ocellated Octopus</text>
</svg>