<svg xmlns="http://www.w3.org/2000/svg" viewBox="0 0 640 640" width="640" height="640">
  <defs>
    <linearGradient id="bg" x1="0" y1="0" x2="1" y2="1">
      <stop offset="0%" stop-color="#0078a8"/>
      <stop offset="100%" stop-color="#0a3d5c"/>
    </linearGradient>
  </defs>
  <!-- 背景: ocean-mid → ocean-deep グラデーション角丸 -->
  <rect x="0" y="0" width="640" height="640" rx="128" ry="128" fill="url(#bg)"/>
  <!-- lucide Fish アイコン（24x24 → 640中央に配置、スケール16倍） -->
  <g transform="translate(120,120) scale(16.67)" fill="none" stroke="white" stroke-width="2" stroke-linecap="round" stroke-linejoin="round">
    <!-- Fish body -->
    <path d="M6.5 12c.94-3.46 4.94-6 8.5-6 3.56 0 6.06 2.54 7 6-.94 3.47-3.44 6-7 6s-7.56-2.53-8.5-6Z"/>
    <!-- Eye -->
    <path d="M18 12v.5"/>
    <!-- Tail fin lines -->
    <path d="M16 17.93a9.77 9.77 0 0 1 0-11.86"/>
    <!-- Tail -->
    <path d="M7 10.67C7 8 5.58 5.97 2.73 5.5c-1 1.5-1 5 .23 6.5-1.24 1.5-1.24 5-.23 6.5C5.58 18.03 7 16 7 13.33"/>
    <!-- Top fin -->
    <path d="M10.46 7.26C10.2 5.88 9.17 4.24 8 3h5.8a2 2 0 0 1 1.98 1.67l.23 1.4"/>
    <!-- Bottom fin -->
    <path d="m16.01 17.93-.23 1.4A2 2 0 0 1 13.8 21H9.5a5.96 5.96 0 0 0 1.49-3.98"/>
  </g>
</svg>