<svg xmlns="http://www.w3.org/2000/svg" viewBox="0 0 200 48" width="200" height="48">
  <defs>
    <linearGradient id="icon-bg" x1="0%" y1="0%" x2="100%" y2="100%">
      <stop offset="0%" stop-color="#0369a1"/>
      <stop offset="100%" stop-color="#0c4a6e"/>
    </linearGradient>
    <linearGradient id="text-grad" x1="0%" y1="0%" x2="100%" y2="0%">
      <stop offset="0%" stop-color="#0c4a6e"/>
      <stop offset="100%" stop-color="#0369a1"/>
    </linearGradient>
  </defs>
  <!-- Icon background -->
  <rect x="4" y="4" width="40" height="40" rx="10" ry="10" fill="url(#icon-bg)"/>
  <!-- Lucide Fish icon (white, centered in 40x40 box at offset 4,4) -->
  <g transform="translate(12, 12)" fill="none" stroke="white" stroke-width="1.8" stroke-linecap="round" stroke-linejoin="round">
    <path d="M6.5 12c.94-3.46 4.94-6 8.5-6 3.56 0 6.06 2.54 7 6-.94 3.47-3.44 6-7 6s-7.56-2.53-8.5-6Z"/>
    <path d="M18 12v.5"/>
    <path d="M16 17.93a9.77 9.77 0 0 1 0-11.86"/>
    <path d="M7 10.67C7 8 5.58 5.97 2.73 5.5c-1 1.5-1 5 .23 6.5-1.24 1.5-1.24 5-.23 6.5C5.58 18.03 7 16 7 13.33"/>
    <path d="M10.46 7.26C10.2 5.88 9.17 4.24 8 3h5.8a2 2 0 0 1 1.98 1.67l.23 1.4"/>
    <path d="m16.01 17.93-.23 1.4A2 2 0 0 1 13.8 21H9.5a5.96 5.96 0 0 0 1.49-3.98"/>
  </g>
  <!-- Text: ツリスポ -->
  <text x="54" y="33" font-family="'Zen Maru Gothic', 'Noto Sans JP', 'Hiragino Sans', sans-serif" font-size="24" font-weight="700" fill="url(#text-grad)" letter-spacing="1.5">ツリスポ</text>
</svg>
