<svg xmlns="http://www.w3.org/2000/svg" width="800" height="400" viewBox="0 0 800 400">
  <defs>
    <linearGradient id="bg" x1="0%" y1="0%" x2="100%" y2="100%">
      <stop offset="0%" style="stop-color:#e0f2fe"/>
      <stop offset="100%" style="stop-color:#7dd3fc"/>
    </linearGradient>
  </defs>
  <rect width="800" height="400" fill="url(#bg)"/>
  <!-- Map pin -->
  <g transform="translate(400,150)" opacity="0.5">
    <path d="M0,-55 Q-30,-55 -30,-30 Q-30,0 0,40 Q30,0 30,-30 Q30,-55 0,-55Z" fill="#0284c7" opacity="0.3"/>
    <path d="M0,-55 Q-30,-55 -30,-30 Q-30,0 0,40 Q30,0 30,-30 Q30,-55 0,-55Z" fill="none" stroke="#0369a1" stroke-width="2.5"/>
    <circle cx="0" cy="-28" r="12" fill="none" stroke="#0369a1" stroke-width="2"/>
    <circle cx="0" cy="-28" r="4" fill="#0369a1" opacity="0.5"/>
  </g>
  <!-- Mini map lines -->
  <g transform="translate(400,150)" opacity="0.2">
    <path d="M-80,-20 Q-60,-40 -40,-20" fill="none" stroke="#0369a1" stroke-width="1.5"/>
    <path d="M-90,10 Q-70,-10 -50,10" fill="none" stroke="#0369a1" stroke-width="1.5"/>
    <path d="M40,-20 Q60,-40 80,-20" fill="none" stroke="#0369a1" stroke-width="1.5"/>
    <path d="M50,10 Q70,-10 90,10" fill="none" stroke="#0369a1" stroke-width="1.5"/>
  </g>
  <!-- Waves -->
  <path d="M0,310 Q100,290 200,310 Q300,330 400,310 Q500,290 600,310 Q700,330 800,310 L800,400 L0,400Z" fill="#38bdf8" opacity="0.2"/>
  <path d="M0,335 Q100,315 200,335 Q300,355 400,335 Q500,315 600,335 Q700,355 800,335 L800,400 L0,400Z" fill="#0ea5e9" opacity="0.15"/>
  <text x="400" y="275" text-anchor="middle" font-family="sans-serif" font-size="18" font-weight="600" fill="#0369a1" opacity="0.5">SPOT GUIDE</text>
  <text x="400" y="300" text-anchor="middle" font-family="sans-serif" font-size="13" fill="#0284c7" opacity="0.4">tsurispot.com</text>
</svg>