<svg xmlns="http://www.w3.org/2000/svg" width="800" height="400" viewBox="0 0 800 400">
  <defs>
    <linearGradient id="bg" x1="0%" y1="0%" x2="100%" y2="100%">
      <stop offset="0%" style="stop-color:#e0f2fe"/>
      <stop offset="100%" style="stop-color:#bae6fd"/>
    </linearGradient>
  </defs>
  <rect width="800" height="400" fill="url(#bg)"/>
  <g transform="translate(400,200)" opacity="0.3">
    <path d="M-20,-40 L-20,20 Q-20,30 -10,30 L10,30 Q20,30 20,20 L20,-40" fill="none" stroke="#0284c7" stroke-width="3"/>
    <line x1="0" y1="-40" x2="0" y2="-80" stroke="#0284c7" stroke-width="2"/>
    <path d="M0,-80 Q30,-60 20,-40" fill="none" stroke="#0284c7" stroke-width="2"/>
    <circle cx="20" cy="-40" r="3" fill="#0284c7"/>
    <path d="M-30,10 Q-40,0 -30,-10 Q-20,0 -30,10Z" fill="#0284c7" opacity="0.5" transform="translate(-20,0)"/>
    <path d="M30,10 Q20,0 30,-10 Q40,0 30,10Z" fill="#0284c7" opacity="0.5" transform="translate(20,0)"/>
  </g>
  <text x="400" y="260" text-anchor="middle" font-family="sans-serif" font-size="16" fill="#0284c7" opacity="0.5">tsurispot.com</text>
</svg>
